<?xml version="1.0" encoding="UTF-8" standalone="no"?>
<svg
   xmlns:dc="http://purl.org/dc/elements/1.1/"
   xmlns:cc="http://creativecommons.org/ns#"
   xmlns:rdf="http://www.w3.org/1999/02/22-rdf-syntax-ns#"
   xmlns:svg="http://www.w3.org/2000/svg"
   xmlns="http://www.w3.org/2000/svg"
   xmlns:sodipodi="http://sodipodi.sourceforge.net/DTD/sodipodi-0.dtd"
   xmlns:inkscape="http://www.inkscape.org/namespaces/inkscape"
   width="256mm"
   height="256mm"
   viewBox="0 0 256 256"
   version="1.1"
   id="svg8"
   inkscape:version="1.0.2-2 (e86c870879, 2021-01-15)"
   sodipodi:docname="logo.svg"
   inkscape:export-filename="C:\Users\HP\Documents\godot\CarSimulator\icon.png"
   inkscape:export-xdpi="6.3499999"
   inkscape:export-ydpi="6.3499999">
  <defs
     id="defs2" />
  <sodipodi:namedview
     id="base"
     pagecolor="#ffffff"
     bordercolor="#666666"
     borderopacity="1.0"
     inkscape:pageopacity="0.0"
     inkscape:pageshadow="2"
     inkscape:zoom="0.47493176"
     inkscape:cx="378.42795"
     inkscape:cy="511.87827"
     inkscape:document-units="mm"
     inkscape:current-layer="layer1"
     inkscape:document-rotation="0"
     showgrid="false"
     inkscape:snap-nodes="true"
     inkscape:snap-others="true"
     inkscape:snap-global="false"
     inkscape:window-width="1366"
     inkscape:window-height="715"
     inkscape:window-x="-8"
     inkscape:window-y="-8"
     inkscape:window-maximized="1" />
  <metadata
     id="metadata5">
    <rdf:RDF>
      <cc:Work
         rdf:about="">
        <dc:format>image/svg+xml</dc:format>
        <dc:type
           rdf:resource="http://purl.org/dc/dcmitype/StillImage" />
        <dc:title></dc:title>
      </cc:Work>
    </rdf:RDF>
  </metadata>
  <g
     inkscape:label="Layer 1"
     inkscape:groupmode="layer"
     id="layer1">
    <path
       style="fill:#e2e2e2;fill-opacity:1;stroke:none;stroke-width:0.279987px;stroke-linecap:butt;stroke-linejoin:miter;stroke-opacity:1"
       d="m 79.284416,37.396109 92.126504,-0.208432 c 0,0 17.92507,2.084311 27.51289,11.255277 9.58783,9.170962 37.10072,35.43327 39.60189,74.201436 2.50117,38.76817 -8.7541,65.86419 -15.84075,72.53399 -3.54333,3.33489 -9.3794,9.11886 -19.74883,14.0691 -10.36945,4.95023 -25.27227,9.06674 -34.44324,8.23301 -18.34193,-1.66744 -83.789257,-0.62529 -83.789257,-0.62529 0,0 -14.954924,0.10424 -27.617108,-5.05446 -12.587662,-5.1283 -17.986306,-7.50597 -26.783383,-18.9151 C 22.41336,182.65322 15.717617,169.13174 16.129823,132.8575 16.546686,96.173649 27.075981,82.758025 38.431941,67.827037 49.687215,53.028437 65.944833,38.229834 79.284416,37.396109 Z"
       id="path869"
       sodipodi:nodetypes="ccssssscssssc" />
    <path
       style="fill:#323232;fill-opacity:1;stroke:none;stroke-width:0.264583px;stroke-linecap:butt;stroke-linejoin:miter;stroke-opacity:1"
       d="m 81.936914,42.347202 87.057976,-0.196964 c 0,0 16.93888,1.969638 25.99921,10.636044 9.06033,8.666403 35.05954,33.483835 37.42311,70.119088 2.36356,36.63526 -8.27248,62.24054 -14.96924,68.54338 -3.34839,3.15142 -8.86337,8.61717 -18.66231,13.29506 -9.79895,4.67789 -23.88186,8.56792 -32.54827,7.78006 -17.33281,-1.57571 -79.179418,-0.59089 -79.179418,-0.59089 0,0 -14.132148,0.0985 -26.097696,-4.77638 C 49.065151,202.31044 43.963524,200.06359 35.650437,189.28215 28.194737,179.61269 21.867374,166.83512 22.256902,132.55659 22.65083,97.890974 32.600834,85.213438 43.332023,71.10391 53.968064,57.119485 69.331236,43.135058 81.936914,42.347202 Z"
       id="path849"
       sodipodi:nodetypes="ccssssscssssc" />
    <path
       style="fill:#e2e2e2;fill-opacity:1;stroke:none;stroke-width:0.264583px;stroke-linecap:butt;stroke-linejoin:miter;stroke-opacity:1"
       d="m 70.890667,188.57753 c 6.49406,1.76538 35.605633,3.10084 39.097233,3.06404 3.49161,-0.0368 7.1681,0.61046 8.25606,-5.23329 1.08258,-5.81483 -1.36715,-13.76812 -4.98828,-19.06055 -2.56174,-3.74408 -20.28203,-27.01765 -24.64627,-29.69683 -4.364239,-2.67918 -7.931802,-1.50756 -10.643995,-0.93268 -2.712192,0.57487 -5.646878,1.88621 -10.695883,1.8598 -5.049004,-0.0264 -12.46579,-0.84077 -14.063816,-0.91722 -1.598025,-0.0765 -7.736138,-0.74519 -10.596199,6.2082 -2.860061,6.95339 4.968397,26.80398 11.011125,34.40223 6.042728,7.59825 10.775965,8.54092 17.270025,10.3063 z"
       id="path851"
       sodipodi:nodetypes="zzsszzzzzzz" />
    <path
       style="fill:#e2e2e2;fill-opacity:1;stroke:none;stroke-width:0.264583px;stroke-linecap:butt;stroke-linejoin:miter;stroke-opacity:1"
       d="m 183.61658,188.57753 c -6.49406,1.76538 -35.60564,3.10084 -39.09724,3.06404 -3.49161,-0.0368 -7.1681,0.61046 -8.25606,-5.23329 -1.08258,-5.81483 1.36715,-13.76812 4.98828,-19.06055 2.56174,-3.74408 20.28203,-27.01765 24.64627,-29.69683 4.36424,-2.67918 7.9318,-1.50756 10.644,-0.93268 2.71219,0.57487 5.64688,1.88621 10.69588,1.8598 5.049,-0.0264 12.46579,-0.84077 14.06382,-0.91722 1.59802,-0.0765 7.73613,-0.74519 10.5962,6.2082 2.86006,6.95339 -4.9684,26.80398 -11.01113,34.40223 -6.04273,7.59825 -10.77596,8.54092 -17.27002,10.3063 z"
       id="path853"
       sodipodi:nodetypes="zzsszzzzzzz" />
    <path
       id="path855"
       style="fill:#e2e2e2;fill-opacity:1;stroke:none;stroke-width:0.999999px;stroke-linecap:butt;stroke-linejoin:miter;stroke-opacity:1"
       d="m 463.82031,237.21094 c 0,0 -38.08228,-0.91934 -73.33398,-0.93555 -21.15103,-0.01 -41.28342,0.30599 -51.5586,1.33984 -27.40044,2.75695 -43.86491,6.15479 -64.68164,21.99219 -20.81673,15.83741 -65.40837,69.4389 -79.7832,95.04883 -14.37487,25.60995 -19.08463,38.10367 -16.31836,49.61328 2.76631,11.50957 16.67556,20.33005 26.1875,22.63477 9.51194,2.30471 25.71634,-3.73521 37.37305,-6.31836 11.6567,-2.58316 30.58458,-2.58047 46.45508,-1.1836 15.8705,1.39684 28.51257,8.50341 52.50781,10.00196 23.9952,1.4985 44.3551,-9.3119 59.61328,-19.60938 15.25818,-10.29747 21.51765,-15.177 36.58398,-22.63476 15.0663,-7.45777 27.50391,-5 27.50391,-5 h 32.01758 c 0,0 12.43762,-2.45777 27.5039,5 15.06634,7.45776 21.32581,12.33729 36.58399,22.63476 15.25818,10.29748 35.62003,21.10788 59.61523,19.60938 23.99524,-1.49855 36.63536,-8.60512 52.50586,-10.00196 15.8705,-1.39687 34.79838,-1.39956 46.45508,1.1836 11.65671,2.58315 27.86111,8.62307 37.37305,6.31836 9.51194,-2.30472 23.42314,-11.1252 26.18945,-22.63477 2.76628,-11.50961 -1.94349,-24.00333 -16.31836,-49.61328 -14.37483,-25.60993 -58.96842,-79.21142 -79.78515,-95.04883 -20.81674,-15.8374 -37.2812,-19.23524 -64.68165,-21.99219 -10.27516,-1.03385 -30.40757,-1.34957 -51.55859,-1.33984 -35.2517,0.0162 -73.33398,0.93555 -73.33398,0.93555 z"
       transform="scale(0.26458333)"
       sodipodi:nodetypes="cssssssssssccccsssssssssscc" />
    <path
       style="fill:#e2e2e2;fill-opacity:1;stroke:none;stroke-width:0.264583px;stroke-linecap:butt;stroke-linejoin:miter;stroke-opacity:1"
       d="m 122.11751,117.39039 h 22.8478 l -3.34908,5.23437 h -16.93818 l -8.25826,14.30372 h 28.15159 l -3.39122,5.11042 h -34.81973 z"
       id="path863"
       sodipodi:nodetypes="ccccccccc" />
    <path
       style="fill:#e2e2e2;fill-opacity:1;stroke:none;stroke-width:0.264583px;stroke-linecap:butt;stroke-linejoin:miter;stroke-opacity:1"
       d="m 136.8898,126.45072 23.24172,0.19697 -2.46204,4.13623 -17.13585,-0.39392 -2.46204,4.9241 -6.20436,0.19695 z"
       id="path865"
       sodipodi:nodetypes="ccccccc" />
    <path
       style="fill:#e2e2e2;fill-opacity:1;stroke:none;stroke-width:0.264583px;stroke-linecap:butt;stroke-linejoin:miter;stroke-opacity:1"
       d="m 144.92451,140.45204 5.94971,0.0816 -9.55274,18.21913 -20.77966,0.19698 2.25807,-4.20588 15.09862,-0.42275 4.12429,-8.06355 -16.13618,0.16812 1.58766,-2.7406 15.42786,-0.19697 z"
       id="path867"
       sodipodi:nodetypes="ccccccccccc" />
  </g>
</svg>
